<svg width="32" height="29" viewBox="0 0 32 29" fill="none" xmlns="http://www.w3.org/2000/svg">
<g clip-path="url(#clip0_529_5)">
<g filter="url(#filter0_d_529_5)">
<path d="M21 10.78V8C21 6.35 19.65 5 18 5H14C13.23 5 12.53 5.3 12 5.78C11.47 5.3 10.77 5 10 5H6C4.35 5 3 6.35 3 8V10.78C2.39 11.33 2 12.12 2 13V19H4V17H20V19H22V13C22 12.12 21.61 11.33 21 10.78ZM14 7H18C18.55 7 19 7.45 19 8V10H13V8C13 7.45 13.45 7 14 7ZM5 8C5 7.45 5.45 7 6 7H10C10.55 7 11 7.45 11 8V10H5V8Z" fill="#FF7B30"/>
</g>
</g>
<g filter="url(#filter1_d_529_5)">
<mask id="path-2-outside-1_529_5" maskUnits="userSpaceOnUse" x="11" y="11" width="19" height="11" fill="black">
<rect fill="white" x="11" y="11" width="19" height="11"/>
<path d="M12.7585 21V12.2727H16.2017C16.8608 12.2727 17.4233 12.3906 17.8892 12.6264C18.358 12.8594 18.7145 13.1903 18.9588 13.6193C19.206 14.0455 19.3295 14.5469 19.3295 15.1236C19.3295 15.7031 19.2045 16.2017 18.9545 16.6193C18.7045 17.0341 18.3423 17.3523 17.8679 17.5739C17.3963 17.7955 16.8253 17.9062 16.1548 17.9062H13.8494V16.4233H15.8565C16.2088 16.4233 16.5014 16.375 16.7344 16.2784C16.9673 16.1818 17.1406 16.0369 17.2543 15.8438C17.3707 15.6506 17.429 15.4105 17.429 15.1236C17.429 14.8338 17.3707 14.5895 17.2543 14.3906C17.1406 14.1918 16.9659 14.0412 16.7301 13.9389C16.4972 13.8338 16.2031 13.7812 15.848 13.7812H14.6037V21H12.7585ZM17.4716 17.0284L19.6406 21H17.6037L15.4815 17.0284H17.4716ZM20.6335 21V12.2727H24.0767C24.7358 12.2727 25.2983 12.3906 25.7642 12.6264C26.233 12.8594 26.5895 13.1903 26.8338 13.6193C27.081 14.0455 27.2045 14.5469 27.2045 15.1236C27.2045 15.7031 27.0795 16.2017 26.8295 16.6193C26.5795 17.0341 26.2173 17.3523 25.7429 17.5739C25.2713 17.7955 24.7003 17.9062 24.0298 17.9062H21.7244V16.4233H23.7315C24.0838 16.4233 24.3764 16.375 24.6094 16.2784C24.8423 16.1818 25.0156 16.0369 25.1293 15.8438C25.2457 15.6506 25.304 15.4105 25.304 15.1236C25.304 14.8338 25.2457 14.5895 25.1293 14.3906C25.0156 14.1918 24.8409 14.0412 24.6051 13.9389C24.3722 13.8338 24.0781 13.7812 23.723 13.7812H22.4787V21H20.6335ZM25.3466 17.0284L27.5156 21H25.4787L23.3565 17.0284H25.3466Z"/>
</mask>
<path d="M12.7585 21V12.2727H16.2017C16.8608 12.2727 17.4233 12.3906 17.8892 12.6264C18.358 12.8594 18.7145 13.1903 18.9588 13.6193C19.206 14.0455 19.3295 14.5469 19.3295 15.1236C19.3295 15.7031 19.2045 16.2017 18.9545 16.6193C18.7045 17.0341 18.3423 17.3523 17.8679 17.5739C17.3963 17.7955 16.8253 17.9062 16.1548 17.9062H13.8494V16.4233H15.8565C16.2088 16.4233 16.5014 16.375 16.7344 16.2784C16.9673 16.1818 17.1406 16.0369 17.2543 15.8438C17.3707 15.6506 17.429 15.4105 17.429 15.1236C17.429 14.8338 17.3707 14.5895 17.2543 14.3906C17.1406 14.1918 16.9659 14.0412 16.7301 13.9389C16.4972 13.8338 16.2031 13.7812 15.848 13.7812H14.6037V21H12.7585ZM17.4716 17.0284L19.6406 21H17.6037L15.4815 17.0284H17.4716ZM20.6335 21V12.2727H24.0767C24.7358 12.2727 25.2983 12.3906 25.7642 12.6264C26.233 12.8594 26.5895 13.1903 26.8338 13.6193C27.081 14.0455 27.2045 14.5469 27.2045 15.1236C27.2045 15.7031 27.0795 16.2017 26.8295 16.6193C26.5795 17.0341 26.2173 17.3523 25.7429 17.5739C25.2713 17.7955 24.7003 17.9062 24.0298 17.9062H21.7244V16.4233H23.7315C24.0838 16.4233 24.3764 16.375 24.6094 16.2784C24.8423 16.1818 25.0156 16.0369 25.1293 15.8438C25.2457 15.6506 25.304 15.4105 25.304 15.1236C25.304 14.8338 25.2457 14.5895 25.1293 14.3906C25.0156 14.1918 24.8409 14.0412 24.6051 13.9389C24.3722 13.8338 24.0781 13.7812 23.723 13.7812H22.4787V21H20.6335ZM25.3466 17.0284L27.5156 21H25.4787L23.3565 17.0284H25.3466Z" fill="white"/>
<path d="M12.7585 21H11.7585V22H12.7585V21ZM12.7585 12.2727V11.2727H11.7585V12.2727H12.7585ZM17.8892 12.6264L17.4376 13.5187L17.4442 13.5219L17.8892 12.6264ZM18.9588 13.6193L18.0898 14.1142L18.0938 14.121L18.9588 13.6193ZM18.9545 16.6193L19.811 17.1355L19.8126 17.133L18.9545 16.6193ZM17.8679 17.5739L17.4447 16.6678L17.4426 16.6688L17.8679 17.5739ZM13.8494 17.9062H12.8494V18.9062H13.8494V17.9062ZM13.8494 16.4233V15.4233H12.8494V16.4233H13.8494ZM16.7344 16.2784L17.1174 17.2022L17.1174 17.2022L16.7344 16.2784ZM17.2543 15.8438L16.3978 15.3274L16.3923 15.3367L17.2543 15.8438ZM17.2543 14.3906L16.386 14.8868L16.3914 14.896L17.2543 14.3906ZM16.7301 13.9389L16.3188 14.8504L16.3255 14.8534L16.3322 14.8563L16.7301 13.9389ZM14.6037 13.7812V12.7812H13.6037V13.7812H14.6037ZM14.6037 21V22H15.6037V21H14.6037ZM17.4716 17.0284L18.3492 16.5491L18.0649 16.0284H17.4716V17.0284ZM19.6406 21V22H21.3262L20.5183 20.5207L19.6406 21ZM17.6037 21L16.7217 21.4713L17.0042 22H17.6037V21ZM15.4815 17.0284V16.0284H13.8134L14.5995 17.4997L15.4815 17.0284ZM13.7585 21V12.2727H11.7585V21H13.7585ZM12.7585 13.2727H16.2017V11.2727H12.7585V13.2727ZM16.2017 13.2727C16.744 13.2727 17.1436 13.3698 17.4376 13.5187L18.3408 11.7342C17.703 11.4114 16.9776 11.2727 16.2017 11.2727V13.2727ZM17.4442 13.5219C17.7462 13.6721 17.95 13.8686 18.0899 14.1142L19.8278 13.1244C19.479 12.5121 18.9697 12.0467 18.3342 11.7309L17.4442 13.5219ZM18.0938 14.121C18.2385 14.3705 18.3295 14.6927 18.3295 15.1236H20.3295C20.3295 14.401 20.1735 13.7204 19.8238 13.1176L18.0938 14.121ZM18.3295 15.1236C18.3295 15.5569 18.2373 15.8706 18.0965 16.1057L19.8126 17.133C20.1718 16.5328 20.3295 15.8493 20.3295 15.1236H18.3295ZM18.0981 16.1031C17.959 16.3339 17.7545 16.5231 17.4447 16.6678L18.2911 18.4799C18.9301 18.1814 19.4501 17.7343 19.811 17.1355L18.0981 16.1031ZM17.4426 16.6688C17.1365 16.8126 16.7189 16.9062 16.1548 16.9062V18.9062C16.9317 18.9062 17.6561 18.7783 18.2932 18.4789L17.4426 16.6688ZM16.1548 16.9062H13.8494V18.9062H16.1548V16.9062ZM14.8494 17.9062V16.4233H12.8494V17.9062H14.8494ZM13.8494 17.4233H15.8565V15.4233H13.8494V17.4233ZM15.8565 17.4233C16.2917 17.4233 16.7251 17.3648 17.1174 17.2022L16.3514 15.3547C16.2778 15.3852 16.1259 15.4233 15.8565 15.4233V17.4233ZM17.1174 17.2022C17.5246 17.0333 17.8788 16.7544 18.1162 16.3508L16.3923 15.3367C16.3927 15.3361 16.3938 15.3345 16.3954 15.3325C16.3971 15.3305 16.3981 15.3297 16.3976 15.3301C16.3972 15.3305 16.385 15.3407 16.3514 15.3547L17.1174 17.2022ZM18.1106 16.3601C18.3434 15.974 18.429 15.5437 18.429 15.1236H16.429C16.429 15.2773 16.398 15.3271 16.3979 15.3274L18.1106 16.3601ZM18.429 15.1236C18.429 14.7013 18.3438 14.2721 18.1171 13.8852L16.3914 14.896C16.3977 14.9068 16.429 14.9663 16.429 15.1236H18.429ZM18.1225 13.8945C17.8887 13.4854 17.5366 13.1987 17.128 13.0215L16.3322 14.8563C16.368 14.8719 16.3824 14.8837 16.3852 14.8861C16.3868 14.8875 16.3869 14.8877 16.3863 14.887C16.3857 14.8863 16.3856 14.886 16.386 14.8868L18.1225 13.8945ZM17.1414 13.0274C16.7392 12.8459 16.2932 12.7812 15.848 12.7812V14.7812C16.113 14.7812 16.2552 14.8217 16.3188 14.8504L17.1414 13.0274ZM15.848 12.7812H14.6037V14.7812H15.848V12.7812ZM13.6037 13.7812V21H15.6037V13.7812H13.6037ZM14.6037 20H12.7585V22H14.6037V20ZM16.5939 17.5077L18.763 21.4793L20.5183 20.5207L18.3492 16.5491L16.5939 17.5077ZM19.6406 20H17.6037V22H19.6406V20ZM18.4857 20.5287L16.3635 16.5571L14.5995 17.4997L16.7217 21.4713L18.4857 20.5287ZM15.4815 18.0284H17.4716V16.0284H15.4815V18.0284ZM20.6335 21H19.6335V22H20.6335V21ZM20.6335 12.2727V11.2727H19.6335V12.2727H20.6335ZM25.7642 12.6264L25.3126 13.5187L25.3192 13.5219L25.7642 12.6264ZM26.8338 13.6193L25.9648 14.1142L25.9688 14.121L26.8338 13.6193ZM26.8295 16.6193L27.686 17.1355L27.6876 17.133L26.8295 16.6193ZM25.7429 17.5739L25.3197 16.6678L25.3176 16.6688L25.7429 17.5739ZM21.7244 17.9062H20.7244V18.9062H21.7244V17.9062ZM21.7244 16.4233V15.4233H20.7244V16.4233H21.7244ZM24.6094 16.2784L24.9924 17.2022L24.9924 17.2022L24.6094 16.2784ZM25.1293 15.8438L24.2728 15.3274L24.2673 15.3367L25.1293 15.8438ZM25.1293 14.3906L24.261 14.8868L24.2664 14.896L25.1293 14.3906ZM24.6051 13.9389L24.1938 14.8504L24.2005 14.8534L24.2072 14.8563L24.6051 13.9389ZM22.4787 13.7812V12.7812H21.4787V13.7812H22.4787ZM22.4787 21V22H23.4787V21H22.4787ZM25.3466 17.0284L26.2242 16.5491L25.9399 16.0284H25.3466V17.0284ZM27.5156 21V22H29.2012L28.3933 20.5207L27.5156 21ZM25.4787 21L24.5967 21.4713L24.8792 22H25.4787V21ZM23.3565 17.0284V16.0284H21.6884L22.4745 17.4997L23.3565 17.0284ZM21.6335 21V12.2727H19.6335V21H21.6335ZM20.6335 13.2727H24.0767V11.2727H20.6335V13.2727ZM24.0767 13.2727C24.619 13.2727 25.0186 13.3698 25.3126 13.5187L26.2158 11.7342C25.578 11.4114 24.8526 11.2727 24.0767 11.2727V13.2727ZM25.3192 13.5219C25.6212 13.6721 25.825 13.8686 25.9649 14.1142L27.7028 13.1244C27.354 12.5121 26.8447 12.0467 26.2092 11.7309L25.3192 13.5219ZM25.9688 14.121C26.1135 14.3705 26.2045 14.6927 26.2045 15.1236H28.2045C28.2045 14.401 28.0485 13.7204 27.6988 13.1176L25.9688 14.121ZM26.2045 15.1236C26.2045 15.5569 26.1123 15.8706 25.9715 16.1057L27.6876 17.133C28.0468 16.5328 28.2045 15.8493 28.2045 15.1236H26.2045ZM25.9731 16.1031C25.834 16.3339 25.6295 16.5231 25.3197 16.6678L26.1661 18.4799C26.8051 18.1814 27.3251 17.7343 27.686 17.1355L25.9731 16.1031ZM25.3176 16.6688C25.0115 16.8126 24.5939 16.9062 24.0298 16.9062V18.9062C24.8067 18.9062 25.5311 18.7783 26.1682 18.4789L25.3176 16.6688ZM24.0298 16.9062H21.7244V18.9062H24.0298V16.9062ZM22.7244 17.9062V16.4233H20.7244V17.9062H22.7244ZM21.7244 17.4233H23.7315V15.4233H21.7244V17.4233ZM23.7315 17.4233C24.1667 17.4233 24.6001 17.3648 24.9924 17.2022L24.2264 15.3547C24.1528 15.3852 24.0009 15.4233 23.7315 15.4233V17.4233ZM24.9924 17.2022C25.3996 17.0333 25.7538 16.7544 25.9912 16.3508L24.2673 15.3367C24.2677 15.3361 24.2688 15.3345 24.2704 15.3325C24.2721 15.3305 24.2731 15.3297 24.2726 15.3301C24.2722 15.3305 24.26 15.3407 24.2264 15.3547L24.9924 17.2022ZM25.9856 16.3601C26.2184 15.974 26.304 15.5437 26.304 15.1236H24.304C24.304 15.2773 24.273 15.3271 24.2729 15.3274L25.9856 16.3601ZM26.304 15.1236C26.304 14.7013 26.2188 14.2721 25.9921 13.8852L24.2664 14.896C24.2727 14.9068 24.304 14.9663 24.304 15.1236H26.304ZM25.9975 13.8945C25.7637 13.4854 25.4116 13.1987 25.003 13.0215L24.2072 14.8563C24.243 14.8719 24.2574 14.8837 24.2602 14.8861C24.2618 14.8875 24.2619 14.8877 24.2613 14.887C24.2607 14.8863 24.2606 14.886 24.261 14.8868L25.9975 13.8945ZM25.0164 13.0274C24.6142 12.8459 24.1682 12.7812 23.723 12.7812V14.7812C23.988 14.7812 24.1302 14.8217 24.1938 14.8504L25.0164 13.0274ZM23.723 12.7812H22.4787V14.7812H23.723V12.7812ZM21.4787 13.7812V21H23.4787V13.7812H21.4787ZM22.4787 20H20.6335V22H22.4787V20ZM24.4689 17.5077L26.638 21.4793L28.3933 20.5207L26.2242 16.5491L24.4689 17.5077ZM27.5156 20H25.4787V22H27.5156V20ZM26.3607 20.5287L24.2385 16.5571L22.4745 17.4997L24.5967 21.4713L26.3607 20.5287ZM23.3565 18.0284H25.3466V16.0284H23.3565V18.0284Z" fill="#FF8B4A" mask="url(#path-2-outside-1_529_5)"/>
</g>
<defs>
<filter id="filter0_d_529_5" x="-2" y="5" width="28" height="22" filterUnits="userSpaceOnUse" color-interpolation-filters="sRGB">
<feFlood flood-opacity="0" result="BackgroundImageFix"/>
<feColorMatrix in="SourceAlpha" type="matrix" values="0 0 0 0 0 0 0 0 0 0 0 0 0 0 0 0 0 0 127 0" result="hardAlpha"/>
<feOffset dy="4"/>
<feGaussianBlur stdDeviation="2"/>
<feComposite in2="hardAlpha" operator="out"/>
<feColorMatrix type="matrix" values="0 0 0 0 0 0 0 0 0 0 0 0 0 0 0 0 0 0 0.32 0"/>
<feBlend mode="normal" in2="BackgroundImageFix" result="effect1_dropShadow_529_5"/>
<feBlend mode="normal" in="SourceGraphic" in2="effect1_dropShadow_529_5" result="shape"/>
</filter>
<filter id="filter1_d_529_5" x="8.75854" y="12.2727" width="22.7571" height="16.7273" filterUnits="userSpaceOnUse" color-interpolation-filters="sRGB">
<feFlood flood-opacity="0" result="BackgroundImageFix"/>
<feColorMatrix in="SourceAlpha" type="matrix" values="0 0 0 0 0 0 0 0 0 0 0 0 0 0 0 0 0 0 127 0" result="hardAlpha"/>
<feOffset dy="4"/>
<feGaussianBlur stdDeviation="2"/>
<feComposite in2="hardAlpha" operator="out"/>
<feColorMatrix type="matrix" values="0 0 0 0 0 0 0 0 0 0 0 0 0 0 0 0 0 0 0.25 0"/>
<feBlend mode="normal" in2="BackgroundImageFix" result="effect1_dropShadow_529_5"/>
<feBlend mode="normal" in="SourceGraphic" in2="effect1_dropShadow_529_5" result="shape"/>
</filter>
<clipPath id="clip0_529_5">
<rect width="24" height="24" fill="white"/>
</clipPath>
</defs>
</svg>
