<svg width="102" height="93" viewBox="0 0 102 93" fill="none" xmlns="http://www.w3.org/2000/svg">
<g filter="url(#filter0_d_1_47)">
<rect x="4" width="94" height="85" rx="8" fill="#FF9F10"/>
<rect x="4.25" y="0.25" width="93.5" height="84.5" rx="7.75" stroke="black" stroke-width="0.5"/>
<path d="M58.2917 47.1667H56.6458L56.0625 46.6042C58.1747 44.1542 59.3356 41.0265 59.3333 37.7917C59.3333 35.1134 58.5391 32.4952 57.0512 30.2683C55.5632 28.0414 53.4483 26.3057 50.9738 25.2808C48.4994 24.2559 45.7766 23.9877 43.1498 24.5102C40.523 25.0327 38.1101 26.3224 36.2163 28.2163C34.3224 30.1101 33.0327 32.523 32.5102 35.1498C31.9877 37.7766 32.2559 40.4994 33.2808 42.9738C34.3057 45.4483 36.0414 47.5632 38.2683 49.0512C40.4952 50.5391 43.1134 51.3333 45.7917 51.3333C49.1458 51.3333 52.2292 50.1042 54.6042 48.0625L55.1667 48.6458V50.2917L65.5833 60.6875L68.6875 57.5833L58.2917 47.1667ZM45.7917 47.1667C40.6042 47.1667 36.4167 42.9792 36.4167 37.7917C36.4167 32.6042 40.6042 28.4167 45.7917 28.4167C50.9792 28.4167 55.1667 32.6042 55.1667 37.7917C55.1667 42.9792 50.9792 47.1667 45.7917 47.1667Z" fill="white"/>
</g>
<defs>
<filter id="filter0_d_1_47" x="0" y="0" width="102" height="93" filterUnits="userSpaceOnUse" color-interpolation-filters="sRGB">
<feFlood flood-opacity="0" result="BackgroundImageFix"/>
<feColorMatrix in="SourceAlpha" type="matrix" values="0 0 0 0 0 0 0 0 0 0 0 0 0 0 0 0 0 0 127 0" result="hardAlpha"/>
<feOffset dy="4"/>
<feGaussianBlur stdDeviation="2"/>
<feComposite in2="hardAlpha" operator="out"/>
<feColorMatrix type="matrix" values="0 0 0 0 0 0 0 0 0 0 0 0 0 0 0 0 0 0 0.25 0"/>
<feBlend mode="normal" in2="BackgroundImageFix" result="effect1_dropShadow_1_47"/>
<feBlend mode="normal" in="SourceGraphic" in2="effect1_dropShadow_1_47" result="shape"/>
</filter>
</defs>
</svg>
